<?xml version="1.0" standalone="no"?>
<!DOCTYPE svg PUBLIC "-//W3C//DTD SVG 20010904//EN"
 "http://www.w3.org/TR/2001/REC-SVG-20010904/DTD/svg10.dtd">
<svg version="1.0" xmlns="http://www.w3.org/2000/svg"
 width="150.000000pt" height="150.000000pt" viewBox="0 0 150.000000 150.000000"
 preserveAspectRatio="xMidYMid meet">

<g transform="translate(0.000000,150.000000) scale(0.100000,-0.100000)"
fill="#000000" stroke="none">
<path d="M708 968 c-25 -46 -55 -114 -74 -168 l-19 -55 -3 63 c-5 102 -33 74
-74 -76 -13 -45 -26 -82 -30 -82 -13 0 -9 143 7 235 16 92 14 125 -4 58 -17
-62 -31 -234 -23 -272 12 -55 29 -49 47 16 50 177 65 202 65 110 0 -93 15 -84
61 36 38 102 70 159 76 140 3 -7 -3 -56 -11 -110 -9 -54 -18 -145 -20 -203
l-5 -105 10 80 c5 44 16 126 24 183 19 132 19 172 0 172 -8 0 -20 -10 -27 -22z"/>
<path d="M906 937 c-3 -12 -8 -66 -12 -120 -5 -70 -4 -97 5 -97 6 0 11 6 11
13 4 130 9 195 15 210 4 9 3 17 -3 17 -5 0 -12 -10 -16 -23z"/>
<path d="M800 890 c0 -5 5 -10 10 -10 6 0 10 5 10 10 0 6 -4 10 -10 10 -5 0
-10 -4 -10 -10z"/>
<path d="M935 814 c-12 -23 -15 -38 -8 -42 5 -4 13 -20 17 -36 11 -44 18 -24
8 21 -7 29 -5 47 5 66 7 15 10 27 6 27 -5 0 -17 -16 -28 -36z"/>
<path d="M1015 818 c-14 -34 -12 -48 7 -48 5 0 7 7 4 16 -8 22 12 57 30 50 9
-3 12 -1 9 4 -12 20 -36 9 -50 -22z"/>
<path d="M786 818 c-9 -29 7 -68 28 -68 14 0 56 41 56 55 0 4 -12 -4 -27 -19
-30 -31 -40 -25 -45 24 -4 34 -4 34 -12 8z"/>
<path d="M1036 814 c-8 -21 -8 -26 3 -20 5 3 11 -1 15 -9 8 -21 30 -19 52 7
l19 21 -27 -18 c-27 -17 -28 -17 -38 9 -11 30 -16 32 -24 10z"/>
<path d="M791 514 c0 -11 3 -14 6 -6 3 7 2 16 -1 19 -3 4 -6 -2 -5 -13z"/>
<path d="M595 510 c3 -5 8 -10 11 -10 2 0 4 5 4 10 0 6 -5 10 -11 10 -5 0 -7
-4 -4 -10z"/>
<path d="M680 510 c0 -5 5 -10 11 -10 5 0 7 5 4 10 -3 6 -8 10 -11 10 -2 0 -4
-4 -4 -10z"/>
<path d="M730 510 c0 -5 5 -10 10 -10 6 0 10 5 10 10 0 6 -4 10 -10 10 -5 0
-10 -4 -10 -10z"/>
<path d="M940 510 c0 -5 5 -10 10 -10 6 0 10 5 10 10 0 6 -4 10 -10 10 -5 0
-10 -4 -10 -10z"/>
<path d="M998 513 c7 -3 16 -2 19 1 4 3 -2 6 -13 5 -11 0 -14 -3 -6 -6z"/>
</g>
</svg>
